<mxfile host="app.diagrams.net" modified="2024-07-16T11:23:26.044Z" agent="Mozilla/5.0 (Windows NT 6.1; WOW64) AppleWebKit/537.36 (KHTML, like Gecko) Chrome/109.0.0.0 Safari/537.36 OPR/95.0.0.0" version="24.6.4" etag="P855ZrUObTYS46ac1Tt1" type="github">
  <diagram name="Страница — 1" id="FrOzfnuDUViRkgfFlDYj">
    <mxGraphModel>
      <root>
        <mxCell id="0" />
        <mxCell id="1" parent="0" />
      </root>
    </mxGraphModel>
  </diagram>
</mxfile>
